<?xml version="1.0" encoding="utf-8"?>
<!-- Generator: Adobe Illustrator 25.2.0, SVG Export Plug-In . SVG Version: 6.00 Build 0)  -->
<svg version="1.1" id="Warstwa_1" xmlns="http://www.w3.org/2000/svg" xmlns:xlink="http://www.w3.org/1999/xlink" x="0px" y="0px"
	 viewBox="0 0 274.96 64.85" style="enable-background:new 0 0 274.96 64.85;" xml:space="preserve">
<style type="text/css">
	.st0{fill:#05070D;}
	.st1{clip-path:url(#SVGID_2_);fill:#05070D;}
</style>
<g>
	<polygon class="st0" points="75.81,43.95 75.81,20.92 78.73,20.92 78.73,41.36 91.57,41.36 91.57,43.95 	"/>
	<g>
		<defs>
			<rect id="SVGID_1_" x="11.2" y="9.33" width="253.33" height="46.24"/>
		</defs>
		<clipPath id="SVGID_2_">
			<use xlink:href="#SVGID_1_"  style="overflow:visible;"/>
		</clipPath>
		<path class="st1" d="M103.06,44.11c-1.62,0-3.1-0.33-4.43-0.99c-1.33-0.66-2.47-1.53-3.42-2.63c-0.95-1.09-1.69-2.34-2.21-3.75
			c-0.52-1.41-0.78-2.84-0.78-4.31c0-1.54,0.27-3.01,0.83-4.41c0.55-1.4,1.31-2.65,2.29-3.73c0.97-1.08,2.12-1.94,3.46-2.58
			c1.33-0.64,2.77-0.96,4.33-0.96c1.62,0,3.09,0.34,4.41,1.02c1.32,0.68,2.45,1.57,3.41,2.68c0.95,1.1,1.69,2.35,2.21,3.75
			c0.52,1.4,0.78,2.82,0.78,4.27c0,1.53-0.28,3-0.83,4.41c-0.55,1.41-1.31,2.64-2.27,3.71c-0.96,1.07-2.11,1.92-3.44,2.56
			C106.06,43.79,104.61,44.11,103.06,44.11 M95.17,32.44c0,1.17,0.19,2.3,0.57,3.39c0.38,1.09,0.91,2.06,1.61,2.9
			c0.69,0.84,1.52,1.51,2.5,2.01c0.97,0.5,2.05,0.75,3.24,0.75c1.23,0,2.33-0.27,3.31-0.8c0.97-0.53,1.8-1.22,2.48-2.07
			c0.68-0.86,1.2-1.82,1.56-2.9c0.36-1.08,0.54-2.17,0.54-3.28c0-1.17-0.19-2.3-0.57-3.39c-0.38-1.09-0.92-2.05-1.62-2.89
			c-0.7-0.83-1.54-1.5-2.5-2c-0.96-0.5-2.03-0.75-3.2-0.75c-1.23,0-2.33,0.26-3.31,0.78c-0.97,0.52-1.8,1.2-2.48,2.04
			c-0.68,0.84-1.21,1.81-1.57,2.89C95.36,30.21,95.17,31.31,95.17,32.44"/>
		<path class="st1" d="M134.32,40.84c-2.03,2.18-4.37,3.28-7.01,3.28c-1.54,0-2.96-0.33-4.27-1.01c-1.31-0.67-2.44-1.55-3.39-2.64
			c-0.95-1.09-1.7-2.34-2.25-3.75c-0.55-1.4-0.83-2.85-0.83-4.35c0-1.56,0.27-3.03,0.81-4.43c0.54-1.4,1.29-2.63,2.24-3.7
			c0.95-1.07,2.09-1.92,3.41-2.55c1.32-0.63,2.75-0.94,4.28-0.94c2.23,0,4.06,0.47,5.5,1.39c1.44,0.93,2.54,2.14,3.29,3.63
			l-2.24,1.56c-0.69-1.34-1.61-2.33-2.76-2.98c-1.15-0.65-2.43-0.97-3.86-0.97c-1.17,0-2.23,0.26-3.18,0.76
			c-0.95,0.51-1.76,1.18-2.43,2.01c-0.67,0.83-1.19,1.79-1.56,2.89c-0.37,1.09-0.55,2.22-0.55,3.39c0,1.23,0.21,2.4,0.62,3.49
			c0.41,1.09,0.97,2.05,1.69,2.89c0.71,0.83,1.56,1.49,2.53,1.96c0.97,0.48,2.03,0.71,3.18,0.71c2.51,0,4.77-1.21,6.78-3.63v-3.18
			h-4.96v-2.21h7.43v11.48h-2.46V40.84z"/>
		<rect x="141.3" y="20.95" class="st1" width="2.92" height="23"/>
		<rect x="148.45" y="33.52" class="st1" width="9.57" height="2.59"/>
		<path class="st1" d="M161.93,32.27c0-1.38,0.24-2.76,0.73-4.14c0.49-1.37,1.2-2.61,2.14-3.7c0.94-1.09,2.09-1.97,3.45-2.64
			c1.36-0.67,2.91-1.01,4.64-1.01c2.05,0,3.82,0.47,5.29,1.39c1.47,0.93,2.56,2.14,3.28,3.63l-2.3,1.49
			c-0.35-0.73-0.76-1.35-1.25-1.85c-0.49-0.5-1.02-0.9-1.59-1.2c-0.57-0.3-1.16-0.52-1.77-0.65s-1.2-0.19-1.78-0.19
			c-1.28,0-2.41,0.27-3.39,0.79c-0.98,0.53-1.81,1.22-2.48,2.08c-0.67,0.85-1.17,1.82-1.51,2.89c-0.34,1.07-0.5,2.15-0.5,3.23
			c0,1.21,0.2,2.36,0.6,3.45c0.4,1.09,0.96,2.06,1.67,2.9c0.71,0.84,1.56,1.51,2.53,2.01c0.97,0.5,2.03,0.75,3.18,0.75
			c0.6,0,1.23-0.07,1.87-0.23c0.64-0.15,1.25-0.39,1.83-0.73c0.58-0.34,1.13-0.76,1.64-1.26s0.92-1.12,1.25-1.83l2.43,1.33
			c-0.37,0.86-0.88,1.63-1.54,2.29c-0.66,0.66-1.41,1.22-2.24,1.67c-0.83,0.45-1.71,0.8-2.64,1.04c-0.93,0.24-1.84,0.36-2.73,0.36
			c-1.58,0-3.03-0.35-4.35-1.04c-1.32-0.69-2.46-1.59-3.42-2.71c-0.96-1.12-1.71-2.38-2.24-3.8
			C162.19,35.19,161.93,33.74,161.93,32.27"/>
		<path class="st1" d="M185.54,43.95V20.92h9.86c1.02,0,1.95,0.21,2.81,0.63c0.85,0.42,1.59,0.99,2.21,1.69
			c0.62,0.7,1.1,1.49,1.45,2.37c0.34,0.88,0.52,1.77,0.52,2.68c0,0.8-0.11,1.57-0.34,2.32c-0.23,0.75-0.55,1.42-0.97,2.03
			c-0.42,0.6-0.93,1.13-1.53,1.56c-0.6,0.43-1.26,0.75-1.99,0.94l5.58,8.82h-3.31l-5.26-8.27h-6.1v8.27H185.54z M188.46,33.08h6.97
			c0.6,0,1.15-0.13,1.64-0.39c0.49-0.26,0.9-0.61,1.25-1.05c0.35-0.44,0.62-0.96,0.81-1.54c0.19-0.59,0.29-1.19,0.29-1.82
			c0-0.65-0.11-1.26-0.34-1.83c-0.23-0.57-0.53-1.08-0.91-1.53c-0.38-0.44-0.82-0.79-1.33-1.04c-0.51-0.25-1.04-0.38-1.61-0.38
			h-6.78V33.08z"/>
		<path class="st1" d="M204.45,43.95l9.47-23.03h2.4l9.44,23.03h-3.11l-2.72-6.75h-9.67l-2.69,6.75H204.45z M215.12,24.29
			l-4.28,10.64h8.43L215.12,24.29z"/>
		<polygon class="st1" points="228.22,43.95 228.22,20.92 243.43,20.92 243.43,23.51 231.14,23.51 231.14,31.2 241.49,31.2 
			241.49,33.64 231.14,33.64 231.14,43.95 		"/>
		<polygon class="st1" points="264.54,23.51 256.59,23.51 256.59,43.95 253.67,43.95 253.67,23.51 245.72,23.51 245.72,20.92 
			264.54,20.92 		"/>
		<path class="st1" d="M57.44,32.45c0-6.18-2.42-11.79-6.37-15.94l0.01-0.01l-0.39-0.39c-0.01,0-0.01-0.01-0.01-0.01
			c0,0-0.01-0.01-0.01-0.01l-0.39-0.39l0,0.01c-4.15-3.95-9.76-6.37-15.94-6.37c-6.18,0-11.79,2.42-15.94,6.37l-0.01-0.01
			l-0.35,0.35c-0.02,0.02-0.03,0.03-0.05,0.05c-0.02,0.02-0.03,0.03-0.05,0.05l-0.36,0.35l0,0.01c-3.95,4.15-6.37,9.76-6.37,15.94
			c0,6.18,2.42,11.79,6.37,15.94l-0.01,0.01l0.81,0.81l0.01-0.01c4.15,3.95,9.76,6.37,15.94,6.37c6.18,0,11.79-2.42,15.94-6.37
			l0,0.01l0.81-0.81l-0.01-0.01C55.02,44.25,57.44,38.63,57.44,32.45 M50.26,47.58l-6.66-6.66c5.78-1.01,10.33-2.95,12.48-5.34
			C55.44,40.08,53.43,44.25,50.26,47.58 M34.32,54.43c-1.94,0-3.94-2.21-5.48-6.05c-0.83-2.08-1.48-4.51-1.93-7.16
			c1.93,0.26,3.97,0.42,6.09,0.47l-0.24,0.87l-0.76,2.73l2.44-1.44l2.85-1.68l1.01-0.6c1.17-0.08,2.32-0.2,3.42-0.35
			c-0.44,2.65-1.09,5.08-1.93,7.16C38.26,52.22,36.26,54.43,34.32,54.43 M34.32,10.48c1.94,0,3.94,2.21,5.48,6.05
			c0.83,2.08,1.48,4.51,1.93,7.16c-1.93-0.26-3.97-0.42-6.09-0.47l0.24-0.87l0.75-2.73l-2.44,1.44l-2.85,1.68l-1.01,0.6
			c-1.17,0.08-2.32,0.2-3.42,0.35c0.44-2.65,1.09-5.08,1.93-7.16C30.38,12.68,32.38,10.48,34.32,10.48 M35.86,41.68l-2,1.18
			l0.32-1.16l0.15-0.52l-0.17-0.62l-0.29-1.06l1.78,1.05l1.07,0.63L35.86,41.68z M37.74,40.46l-0.45-0.26l-2.85-1.68l-2.44-1.44
			l0.76,2.73l0.21,0.75c-1.9-0.05-3.75-0.18-5.53-0.41l6.88-6.88l6.87,6.87C40.07,40.28,38.92,40.39,37.74,40.46 M32.78,23.23
			l2-1.18l-0.32,1.16l-0.14,0.53l0.17,0.62l0.29,1.06L33,24.36l-1.07-0.63L32.78,23.23z M30.9,24.45l0.45,0.26l2.85,1.68l2.44,1.44
			l-0.75-2.73l-0.21-0.74c1.9,0.04,3.75,0.18,5.52,0.41l-6.88,6.88l-6.87-6.87C28.57,24.63,29.72,24.52,30.9,24.45 M42,39.33
			l-6.88-6.88L42,25.58c0.14,1.12,0.25,2.28,0.32,3.46l-0.25,0.42l-1.68,2.85l-1.44,2.44l2.73-0.76l0.73-0.2
			C42.37,35.69,42.23,37.55,42,39.33 M41.38,32.89l1.03-1.76l0.65-1.1l0.49,0.83l1.19,2.02l-1.17-0.32l-0.51-0.14l-0.63,0.17
			L41.38,32.89z M26.64,39.33c-0.14-1.13-0.25-2.28-0.32-3.46l0.26-0.44l1.68-2.85l1.44-2.44l-2.73,0.76l-0.74,0.2
			c0.04-1.9,0.18-3.75,0.41-5.52l6.88,6.88L26.64,39.33z M27.28,32l-1.04,1.77l-0.64,1.08L25.1,34L23.91,32l1.16,0.32l0.52,0.15
			l0.62-0.17L27.28,32z M43.55,33.75l0.88,0.24l2.73,0.76l-1.44-2.44l-1.68-2.85l-0.61-1.04c-0.08-1.16-0.2-2.28-0.35-3.37
			c2.65,0.44,5.08,1.09,7.16,1.93c3.85,1.54,6.05,3.53,6.05,5.48c0,1.94-2.21,3.94-6.05,5.48c-2.08,0.83-4.51,1.48-7.16,1.93
			C43.35,37.92,43.51,35.87,43.55,33.75 M25.09,31.14l-0.87-0.24l-2.73-0.76l1.44,2.44l1.68,2.85l0.6,1.02
			c0.08,1.17,0.2,2.31,0.34,3.41c-2.65-0.45-5.08-1.09-7.16-1.93c-3.85-1.54-6.05-3.53-6.05-5.48c0-1.94,2.21-3.94,6.05-5.48
			c2.08-0.84,4.51-1.48,7.16-1.93C25.3,26.98,25.13,29.02,25.09,31.14 M56.07,29.32c-2.15-2.39-6.69-4.32-12.47-5.34l6.66-6.66
			C53.43,20.66,55.44,24.82,56.07,29.32 M49.45,16.52l-6.66,6.66c-1.02-5.78-2.95-10.32-5.34-12.48
			C41.95,11.34,46.11,13.35,49.45,16.52 M31.19,10.7c-2.39,2.15-4.32,6.7-5.34,12.48l-6.66-6.66C22.53,13.35,26.69,11.34,31.19,10.7
			 M18.39,17.32l6.66,6.66c-5.78,1.02-10.32,2.95-12.48,5.34C13.2,24.82,15.21,20.66,18.39,17.32 M12.56,35.59
			c2.15,2.39,6.7,4.32,12.48,5.34l-6.66,6.66C15.21,44.25,13.2,40.08,12.56,35.59 M19.19,48.39l6.66-6.66
			c1.01,5.78,2.95,10.33,5.34,12.48C26.69,53.57,22.53,51.56,19.19,48.39 M37.46,54.21c2.39-2.15,4.32-6.7,5.34-12.48l6.66,6.66
			C46.11,51.56,41.95,53.57,37.46,54.21"/>
	</g>
</g>
</svg>
